<?xml version="1.0" encoding="iso-8859-1"?>
<!-- Uploaded to: SVG Repo, www.svgrepo.com, Generator: SVG Repo Mixer Tools -->
<svg fill="#000000" height="800px" width="800px" version="1.1" id="Layer_1" xmlns="http://www.w3.org/2000/svg" xmlns:xlink="http://www.w3.org/1999/xlink" 
	 viewBox="0 0 511.056 511.056" xml:space="preserve">
<g>
	<g>
		<path d="M357.351,326.821c-7.488-9.067-20.928-10.411-30.037-2.923c-2.133,1.771-4.843,3.328-7.787,4.8V105.723
			c0-3.328-0.768-6.592-2.24-9.557L274.62,10.832c-7.253-14.443-30.912-14.443-38.165,0l-42.667,85.333
			c-1.493,2.965-2.261,6.229-2.261,9.557v223.381c-2.731-1.451-5.248-2.987-7.189-4.693c-8.789-7.787-22.272-7.019-30.123,1.835
			c-7.808,8.832-6.976,22.293,1.835,30.123c16.704,14.763,46.251,23.36,78.144,25.984v86.037c-11.776,0-21.333,9.536-21.333,21.333
			c0,11.776,9.557,21.333,21.333,21.333h42.667c11.797,0,21.333-9.557,21.333-21.333c0-11.797-9.536-21.333-21.333-21.333v-86.165
			c31.104-2.709,60.181-11.093,77.547-25.365C363.516,349.371,364.817,335.931,357.351,326.821z"/>
	</g>
</g>
</svg>